<svg xmlns="http://www.w3.org/2000/svg" viewBox="0 0 640 420" width="640" height="420"><rect width="640" height="420" fill="#191320"/><rect x="0" y="0" width="640" height="20" fill="#141019"/><rect x="70" y="230" width="500" height="130" fill="#6A7BB4" transform="rotate(-6 320 295)"/><circle cx="470" cy="140" r="95" fill="#FF71CE"/><rect x="150" y="50" width="150" height="150" fill="#FFCE5C" transform="rotate(14 225 125)"/><g transform="rotate(-45 490 360)"><line x1="370" y1="330" x2="310" y2="390" stroke="#141019" stroke-width="14" opacity="0.35"/><line x1="394" y1="330" x2="334" y2="390" stroke="#141019" stroke-width="14" opacity="0.35"/><line x1="418" y1="330" x2="358" y2="390" stroke="#141019" stroke-width="14" opacity="0.35"/><line x1="442" y1="330" x2="382" y2="390" stroke="#141019" stroke-width="14" opacity="0.35"/><line x1="466" y1="330" x2="406" y2="390" stroke="#141019" stroke-width="14" opacity="0.35"/><line x1="490" y1="330" x2="430" y2="390" stroke="#141019" stroke-width="14" opacity="0.35"/><line x1="514" y1="330" x2="454" y2="390" stroke="#141019" stroke-width="14" opacity="0.35"/><line x1="538" y1="330" x2="478" y2="390" stroke="#141019" stroke-width="14" opacity="0.35"/><line x1="562" y1="330" x2="502" y2="390" stroke="#141019" stroke-width="14" opacity="0.35"/><line x1="586" y1="330" x2="526" y2="390" stroke="#141019" stroke-width="14" opacity="0.35"/><line x1="610" y1="330" x2="550" y2="390" stroke="#141019" stroke-width="14" opacity="0.35"/><line x1="634" y1="330" x2="574" y2="390" stroke="#141019" stroke-width="14" opacity="0.35"/><line x1="658" y1="330" x2="598" y2="390" stroke="#141019" stroke-width="14" opacity="0.35"/><line x1="682" y1="330" x2="622" y2="390" stroke="#141019" stroke-width="14" opacity="0.35"/></g><circle cx="44" cy="44" r="2.2" fill="#FFFFFF" opacity="0.08"/><circle cx="88" cy="44" r="2.2" fill="#FFFFFF" opacity="0.08"/><circle cx="132" cy="44" r="2.2" fill="#FFFFFF" opacity="0.08"/><circle cx="176" cy="44" r="2.2" fill="#FFFFFF" opacity="0.08"/><circle cx="220" cy="44" r="2.2" fill="#FFFFFF" opacity="0.08"/><circle cx="264" cy="44" r="2.2" fill="#FFFFFF" opacity="0.08"/><circle cx="308" cy="44" r="2.2" fill="#FFFFFF" opacity="0.08"/><circle cx="352" cy="44" r="2.2" fill="#FFFFFF" opacity="0.08"/><circle cx="396" cy="44" r="2.2" fill="#FFFFFF" opacity="0.08"/><circle cx="440" cy="44" r="2.2" fill="#FFFFFF" opacity="0.08"/><circle cx="484" cy="44" r="2.2" fill="#FFFFFF" opacity="0.08"/><circle cx="528" cy="44" r="2.2" fill="#FFFFFF" opacity="0.08"/><circle cx="572" cy="44" r="2.2" fill="#FFFFFF" opacity="0.08"/><circle cx="616" cy="44" r="2.2" fill="#FFFFFF" opacity="0.08"/><circle cx="66" cy="88" r="2.2" fill="#FFFFFF" opacity="0.08"/><circle cx="110" cy="88" r="2.2" fill="#FFFFFF" opacity="0.08"/><circle cx="154" cy="88" r="2.2" fill="#FFFFFF" opacity="0.08"/><circle cx="198" cy="88" r="2.2" fill="#FFFFFF" opacity="0.08"/><circle cx="242" cy="88" r="2.2" fill="#FFFFFF" opacity="0.08"/><circle cx="286" cy="88" r="2.2" fill="#FFFFFF" opacity="0.08"/><circle cx="330" cy="88" r="2.2" fill="#FFFFFF" opacity="0.08"/><circle cx="374" cy="88" r="2.2" fill="#FFFFFF" opacity="0.08"/><circle cx="418" cy="88" r="2.2" fill="#FFFFFF" opacity="0.08"/><circle cx="462" cy="88" r="2.2" fill="#FFFFFF" opacity="0.08"/><circle cx="506" cy="88" r="2.2" fill="#FFFFFF" opacity="0.08"/><circle cx="550" cy="88" r="2.2" fill="#FFFFFF" opacity="0.08"/><circle cx="594" cy="88" r="2.2" fill="#FFFFFF" opacity="0.08"/><circle cx="638" cy="88" r="2.2" fill="#FFFFFF" opacity="0.08"/><circle cx="44" cy="132" r="2.2" fill="#FFFFFF" opacity="0.08"/><circle cx="88" cy="132" r="2.2" fill="#FFFFFF" opacity="0.08"/><circle cx="132" cy="132" r="2.2" fill="#FFFFFF" opacity="0.08"/><circle cx="176" cy="132" r="2.2" fill="#FFFFFF" opacity="0.08"/><circle cx="220" cy="132" r="2.2" fill="#FFFFFF" opacity="0.08"/><circle cx="264" cy="132" r="2.2" fill="#FFFFFF" opacity="0.08"/><circle cx="308" cy="132" r="2.2" fill="#FFFFFF" opacity="0.08"/><circle cx="352" cy="132" r="2.2" fill="#FFFFFF" opacity="0.08"/><circle cx="396" cy="132" r="2.2" fill="#FFFFFF" opacity="0.08"/><circle cx="440" cy="132" r="2.2" fill="#FFFFFF" opacity="0.08"/><circle cx="484" cy="132" r="2.2" fill="#FFFFFF" opacity="0.08"/><circle cx="528" cy="132" r="2.2" fill="#FFFFFF" opacity="0.08"/><circle cx="572" cy="132" r="2.2" fill="#FFFFFF" opacity="0.08"/><circle cx="616" cy="132" r="2.2" fill="#FFFFFF" opacity="0.08"/><circle cx="66" cy="176" r="2.2" fill="#FFFFFF" opacity="0.08"/><circle cx="110" cy="176" r="2.2" fill="#FFFFFF" opacity="0.08"/><circle cx="154" cy="176" r="2.2" fill="#FFFFFF" opacity="0.08"/><circle cx="198" cy="176" r="2.2" fill="#FFFFFF" opacity="0.08"/><circle cx="242" cy="176" r="2.2" fill="#FFFFFF" opacity="0.08"/><circle cx="286" cy="176" r="2.2" fill="#FFFFFF" opacity="0.08"/><circle cx="330" cy="176" r="2.2" fill="#FFFFFF" opacity="0.08"/><circle cx="374" cy="176" r="2.2" fill="#FFFFFF" opacity="0.08"/><circle cx="418" cy="176" r="2.2" fill="#FFFFFF" opacity="0.08"/><circle cx="462" cy="176" r="2.2" fill="#FFFFFF" opacity="0.08"/><circle cx="506" cy="176" r="2.2" fill="#FFFFFF" opacity="0.08"/><circle cx="550" cy="176" r="2.2" fill="#FFFFFF" opacity="0.08"/><circle cx="594" cy="176" r="2.2" fill="#FFFFFF" opacity="0.08"/><circle cx="638" cy="176" r="2.2" fill="#FFFFFF" opacity="0.08"/><circle cx="44" cy="220" r="2.2" fill="#FFFFFF" opacity="0.08"/><circle cx="88" cy="220" r="2.2" fill="#FFFFFF" opacity="0.08"/><circle cx="132" cy="220" r="2.2" fill="#FFFFFF" opacity="0.08"/><circle cx="176" cy="220" r="2.2" fill="#FFFFFF" opacity="0.08"/><circle cx="220" cy="220" r="2.2" fill="#FFFFFF" opacity="0.08"/><circle cx="264" cy="220" r="2.2" fill="#FFFFFF" opacity="0.08"/><circle cx="308" cy="220" r="2.2" fill="#FFFFFF" opacity="0.08"/><circle cx="352" cy="220" r="2.2" fill="#FFFFFF" opacity="0.08"/><circle cx="396" cy="220" r="2.2" fill="#FFFFFF" opacity="0.08"/><circle cx="440" cy="220" r="2.2" fill="#FFFFFF" opacity="0.08"/><circle cx="484" cy="220" r="2.2" fill="#FFFFFF" opacity="0.08"/><circle cx="528" cy="220" r="2.2" fill="#FFFFFF" opacity="0.08"/><circle cx="572" cy="220" r="2.2" fill="#FFFFFF" opacity="0.08"/><circle cx="616" cy="220" r="2.2" fill="#FFFFFF" opacity="0.08"/><circle cx="66" cy="264" r="2.2" fill="#FFFFFF" opacity="0.08"/><circle cx="110" cy="264" r="2.2" fill="#FFFFFF" opacity="0.08"/><circle cx="154" cy="264" r="2.2" fill="#FFFFFF" opacity="0.08"/><circle cx="198" cy="264" r="2.2" fill="#FFFFFF" opacity="0.08"/><circle cx="242" cy="264" r="2.2" fill="#FFFFFF" opacity="0.08"/><circle cx="286" cy="264" r="2.2" fill="#FFFFFF" opacity="0.08"/><circle cx="330" cy="264" r="2.2" fill="#FFFFFF" opacity="0.08"/><circle cx="374" cy="264" r="2.2" fill="#FFFFFF" opacity="0.08"/><circle cx="418" cy="264" r="2.2" fill="#FFFFFF" opacity="0.08"/><circle cx="462" cy="264" r="2.2" fill="#FFFFFF" opacity="0.08"/><circle cx="506" cy="264" r="2.2" fill="#FFFFFF" opacity="0.08"/><circle cx="550" cy="264" r="2.2" fill="#FFFFFF" opacity="0.08"/><circle cx="594" cy="264" r="2.2" fill="#FFFFFF" opacity="0.08"/><circle cx="638" cy="264" r="2.2" fill="#FFFFFF" opacity="0.08"/><circle cx="44" cy="308" r="2.2" fill="#FFFFFF" opacity="0.08"/><circle cx="88" cy="308" r="2.2" fill="#FFFFFF" opacity="0.08"/><circle cx="132" cy="308" r="2.2" fill="#FFFFFF" opacity="0.08"/><circle cx="176" cy="308" r="2.2" fill="#FFFFFF" opacity="0.08"/><circle cx="220" cy="308" r="2.2" fill="#FFFFFF" opacity="0.08"/><circle cx="264" cy="308" r="2.2" fill="#FFFFFF" opacity="0.08"/><circle cx="308" cy="308" r="2.2" fill="#FFFFFF" opacity="0.08"/><circle cx="352" cy="308" r="2.2" fill="#FFFFFF" opacity="0.08"/><circle cx="396" cy="308" r="2.2" fill="#FFFFFF" opacity="0.08"/><circle cx="440" cy="308" r="2.2" fill="#FFFFFF" opacity="0.08"/><circle cx="484" cy="308" r="2.2" fill="#FFFFFF" opacity="0.08"/><circle cx="528" cy="308" r="2.2" fill="#FFFFFF" opacity="0.08"/><circle cx="572" cy="308" r="2.2" fill="#FFFFFF" opacity="0.08"/><circle cx="616" cy="308" r="2.2" fill="#FFFFFF" opacity="0.08"/><circle cx="66" cy="352" r="2.2" fill="#FFFFFF" opacity="0.08"/><circle cx="110" cy="352" r="2.2" fill="#FFFFFF" opacity="0.08"/><circle cx="154" cy="352" r="2.2" fill="#FFFFFF" opacity="0.08"/><circle cx="198" cy="352" r="2.2" fill="#FFFFFF" opacity="0.08"/><circle cx="242" cy="352" r="2.2" fill="#FFFFFF" opacity="0.08"/><circle cx="286" cy="352" r="2.2" fill="#FFFFFF" opacity="0.08"/><circle cx="330" cy="352" r="2.2" fill="#FFFFFF" opacity="0.08"/><circle cx="374" cy="352" r="2.2" fill="#FFFFFF" opacity="0.08"/><circle cx="418" cy="352" r="2.2" fill="#FFFFFF" opacity="0.08"/><circle cx="462" cy="352" r="2.2" fill="#FFFFFF" opacity="0.08"/><circle cx="506" cy="352" r="2.2" fill="#FFFFFF" opacity="0.08"/><circle cx="550" cy="352" r="2.2" fill="#FFFFFF" opacity="0.08"/><circle cx="594" cy="352" r="2.2" fill="#FFFFFF" opacity="0.08"/><circle cx="638" cy="352" r="2.2" fill="#FFFFFF" opacity="0.08"/><circle cx="44" cy="396" r="2.2" fill="#FFFFFF" opacity="0.08"/><circle cx="88" cy="396" r="2.2" fill="#FFFFFF" opacity="0.08"/><circle cx="132" cy="396" r="2.2" fill="#FFFFFF" opacity="0.08"/><circle cx="176" cy="396" r="2.2" fill="#FFFFFF" opacity="0.08"/><circle cx="220" cy="396" r="2.2" fill="#FFFFFF" opacity="0.08"/><circle cx="264" cy="396" r="2.2" fill="#FFFFFF" opacity="0.08"/><circle cx="308" cy="396" r="2.2" fill="#FFFFFF" opacity="0.08"/><circle cx="352" cy="396" r="2.2" fill="#FFFFFF" opacity="0.08"/><circle cx="396" cy="396" r="2.2" fill="#FFFFFF" opacity="0.08"/><circle cx="440" cy="396" r="2.2" fill="#FFFFFF" opacity="0.08"/><circle cx="484" cy="396" r="2.2" fill="#FFFFFF" opacity="0.08"/><circle cx="528" cy="396" r="2.2" fill="#FFFFFF" opacity="0.08"/><circle cx="572" cy="396" r="2.2" fill="#FFFFFF" opacity="0.08"/><circle cx="616" cy="396" r="2.2" fill="#FFFFFF" opacity="0.08"/></svg>