<svg xmlns="http://www.w3.org/2000/svg" viewBox="0 0 500 260"><defs><pattern id="d" width="8" height="8" patternUnits="userSpaceOnUse"><circle cx="2" cy="2" r="1.4" fill="#2a7d95"/></pattern></defs><rect width="500" height="260" fill="#fff5de"/><path d="M0 0h160L37 131 0 145Zm360 0h140v122L445 85Z" fill="#f0be5d"/><path d="M170 0h68L86 142H0v-20Z" fill="#ed6a85" opacity=".9"/><path d="M0 53 118 0h139l-65 100 90-100h103l-106 97L500 12v108l-96 6-94-18-101 26-135-13L0 162Z" fill="#162d4c"/><path d="M0 168 136 113l105 29 116-26 143 37v107H0Z" fill="url(#d)" opacity=".3"/><path d="M0 205c82-84 160-77 227-42 67-49 161-51 273 22" fill="none" stroke="#162d4c" stroke-width="13"/><path d="m91 160 105 4-35 64-72-12zm229-3 103 1-13 63-77 5z" fill="#edfaff" stroke="#162d4c" stroke-width="9"/><path d="m140 170 37 4-18 52-27-5zm215 1 37 2-8 50-30 2z" fill="#162d4c"/><circle cx="156" cy="191" r="8" fill="#edfaff"/><circle cx="371" cy="191" r="8" fill="#edfaff"/><path d="M222 177c27-12 47-12 75 0M0 244l75-14m425 5-72-10" fill="none" stroke="#162d4c" stroke-width="8"/><path d="m0 111 151-22M500 109l-155-12" stroke="#162d4c" stroke-width="4"/></svg>
